<svg width="15" height="15" viewBox="0 0 15 15" fill="none" xmlns="http://www.w3.org/2000/svg">
<path d="M3.125 0.5V1.125H0.625V14.875H14.375V1.125H11.875V0.5H10.625V1.125H4.375V0.5H3.125ZM1.875 2.375H3.125V3H4.375V2.375H10.625V3H11.875V2.375H13.125V3.625H1.875V2.375ZM1.875 4.875H13.125V13.625H1.875V4.875ZM5.625 6.125V7.375H6.875V6.125H5.625ZM8.125 6.125V7.375H9.375V6.125H8.125ZM10.625 6.125V7.375H11.875V6.125H10.625ZM3.125 8.625V9.875H4.375V8.625H3.125ZM5.625 8.625V9.875H6.875V8.625H5.625ZM8.125 8.625V9.875H9.375V8.625H8.125ZM10.625 8.625V9.875H11.875V8.625H10.625ZM3.125 11.125V12.375H4.375V11.125H3.125ZM5.625 11.125V12.375H6.875V11.125H5.625ZM8.125 11.125V12.375H9.375V11.125H8.125Z" fill="#2F1A45"/>
</svg>
