<svg width="21" height="23" viewBox="0 0 21 23" fill="none" xmlns="http://www.w3.org/2000/svg">
<g clip-path="url(#clip0_1843_6)">
<path d="M20.013 0.0786133H2.72495C2.23417 0.0786133 1.83507 0.477714 1.83507 0.971198V14.6701C1.28495 14.8615 0.88855 15.382 0.88855 15.9968V20.6134C0.88855 21.3874 1.51956 22.0157 2.2908 22.0157H4.29709C5.07102 22.0157 5.69934 21.3847 5.69934 20.6134V15.9968C5.69934 15.3847 5.30563 14.8615 4.75552 14.6701V12.6179H20.013C20.5065 12.6179 20.9056 12.2188 20.9056 11.7281V0.971198C20.9056 0.477714 20.5065 0.0786133 20.013 0.0786133ZM19.6921 6.02738H12.1712V1.2867H19.6921V6.02738ZM4.18113 6.66648H11.5348V11.4072H4.18113V6.66648ZM12.1712 6.66648H19.6921V11.4072H12.1712V6.66648ZM11.5348 6.02738H4.18113V1.2867H11.5348V6.02738ZM3.54473 15.1663H3.04316V1.2894H3.54473V15.1663ZM4.29709 15.8027C4.40226 15.8027 4.48855 15.889 4.48855 15.9941V20.6107C4.48855 20.7186 4.40226 20.8022 4.29709 20.8022H2.29349C2.18563 20.8022 2.09934 20.7186 2.09934 20.6107V15.9941C2.09934 15.889 2.18563 15.8027 2.29349 15.8027H4.29709Z" fill="#2F1A45"/>
<path d="M11.532 1.29224H4.1756V6.03021H11.532V1.29224Z" fill="#2F1A45"/>
<path d="M19.7166 6.67188H12.1633V11.4099H19.7166V6.67188Z" fill="#2F1A45"/>
</g>
<defs>
<clipPath id="clip0_1843_6">
<rect width="20.0144" height="21.9371" fill="white" transform="translate(0.887634 0.0786133)"/>
</clipPath>
</defs>
</svg>
