<svg width="24" height="24" viewBox="0 0 24 24" fill="none" xmlns="http://www.w3.org/2000/svg">
<path d="M4.11155 19.9512C5.13801 20.9777 6.3336 21.7825 7.66334 22.3453C9.04264 22.9256 10.5065 23.2231 12.0141 23.2231C13.5217 23.2231 14.9885 22.9256 16.3649 22.3453C17.6976 21.7796 18.8932 20.9748 19.9167 19.9512C20.9432 18.9248 21.7509 17.7292 22.3108 16.3965C22.894 15.0172 23.1915 13.5563 23.1915 12.0457C23.1915 10.5352 22.8969 9.07133 22.3108 7.69494C21.748 6.36229 20.9432 5.1667 19.9167 4.14024C18.8932 3.11669 17.6976 2.30894 16.3649 1.74613C14.9856 1.16292 13.5217 0.865479 12.0141 0.865479C10.5065 0.865479 9.04264 1.16292 7.66334 1.74613C6.3336 2.30894 5.13801 3.11669 4.11155 4.14024C3.08509 5.1667 2.28025 6.35938 1.71453 7.69494C1.13132 9.07133 0.836792 10.5352 0.836792 12.0457C0.836792 13.5563 1.13132 15.0201 1.71453 16.3965C2.27734 17.7292 3.08217 18.9248 4.11155 19.9512ZM5.09427 18.9685C4.47898 18.3532 3.957 17.6709 3.53125 16.936L4.42066 16.4636C5.19342 17.0993 6.12365 17.6446 7.2755 18.1812L9.16512 21.4151C7.64292 20.9544 6.24904 20.1233 5.09135 18.9685M4.99804 5.6391L5.00679 5.72659L8.51775 5.33291L9.43631 7.89032L7.02763 12.0749L4.65977 12.209L3.16091 8.94302C3.72371 7.70369 4.23986 6.77929 4.99512 5.6391M13.6646 8.26358L16.1141 12.6902C15.5484 13.8275 14.9565 14.539 14.2216 15.5859H9.53838C8.68397 13.947 8.57607 13.7575 7.70416 12.3519L10.037 8.29565C11.1918 8.20525 12.4136 8.12069 13.6646 8.26358ZM15.3385 5.49621L19.0856 5.98028C19.8234 7.09131 20.3104 7.94572 20.9198 9.11799L19.3947 12.6144L16.7207 12.2819L14.3178 7.94572L15.3385 5.4933V5.49621ZM13.5276 21.3276C12.1978 21.4822 11.2793 21.4064 9.94371 21.313L8.0016 17.9916L9.39841 16.309H14.2245L15.98 18.3503L13.4372 21.246L13.5247 21.3247L13.5276 21.3276ZM18.934 18.9685C17.6451 20.2574 16.0587 21.141 14.3324 21.558L14.1954 21.4851L16.8169 18.499C17.9717 17.8779 18.6074 17.4492 19.488 16.7406L20.2608 17.3209C19.8817 17.91 19.4385 18.4611 18.934 18.9656M20.6311 16.6969L19.8234 16.0874C19.9984 14.8539 19.9896 14.087 19.9371 13.1772L21.4943 9.60206C21.6984 10.3923 21.8005 11.2088 21.8005 12.0457C21.8005 13.6962 21.3952 15.2826 20.6311 16.6969ZM18.934 5.12587C18.934 5.12587 18.9486 5.14337 18.9573 5.1492L18.9398 5.23085L15.0673 4.7322C14.2887 4.0615 13.5188 3.55411 12.3903 3.10503V2.26811C14.8631 2.35851 17.1727 3.36748 18.9311 5.12587M11.67 2.26811V3.11086C10.5415 3.54827 9.78333 3.86904 8.73062 4.58057L5.25465 4.97132C7.00139 3.30332 9.25843 2.35268 11.67 2.26811ZM2.58352 9.41251L4.08822 12.6873L4.13488 12.6669C4.0474 13.6554 4.02407 14.6002 4.12905 15.7987L3.19299 16.3003C2.5602 14.9939 2.22776 13.5475 2.22776 12.0486C2.22776 11.1447 2.34732 10.2611 2.58352 9.41251Z" fill="#2F1A45"/>
</svg>
