<svg width="618" height="618" viewBox="0 0 618 618" fill="none" xmlns="http://www.w3.org/2000/svg">
<path opacity="0.2" d="M591.924 189.495C576.477 152.932 554.4 120.111 526.253 91.9303C498.105 63.7499 465.344 41.5948 428.866 26.1386C391.062 10.121 350.923 2 309.57 2C309.383 2 309.196 2.01871 309.009 2.01871C308.823 2.01871 308.636 2 308.449 2C267.096 2 226.957 10.121 189.172 26.1386C152.675 41.5948 119.895 63.7312 91.7662 91.9303C63.6185 120.129 41.5225 152.932 26.0945 189.495C10.1249 227.368 2 267.562 2 309.009C2 350.457 10.1062 390.65 26.0945 428.505C41.5225 465.068 63.6185 497.889 91.7662 526.07C119.895 554.269 152.675 576.405 189.172 591.861C226.957 607.879 267.096 616 308.449 616C308.636 616 308.823 615.981 309.009 615.981C309.196 615.981 309.383 616 309.57 616C350.923 616 391.062 607.879 428.847 591.861C465.344 576.405 498.105 554.269 526.234 526.07C554.381 497.889 576.459 465.049 591.905 428.505C607.875 390.65 616 350.438 616 309.009C616 267.581 607.894 227.368 591.905 189.514L591.924 189.495ZM553.672 228.547L511.833 324.634L438.522 315.446L372.682 196.363L400.699 129.036L503.409 142.341C523.675 172.879 536.974 196.306 553.69 228.529L553.672 228.547ZM319.955 40.3972C387.718 42.9608 451.074 70.5985 499.3 118.913C499.524 119.119 499.711 119.344 499.935 119.549L499.506 121.814L393.322 108.06C371.954 89.61 350.867 75.7444 319.973 63.4505V40.3972H319.955ZM309.009 203.043C324.045 202.837 339.361 203.305 354.826 205.064L422.048 326.636C406.583 357.829 390.352 377.383 370.142 406.237H247.895C227.667 377.383 211.454 357.829 195.989 326.636L263.192 205.064C278.658 203.305 293.974 202.837 309.009 203.043ZM118.718 118.932C166.945 70.6172 230.3 42.9608 298.083 40.4159V63.4692C267.171 75.7631 246.083 89.6287 224.716 108.079L118.532 121.832L118.102 119.568C118.308 119.362 118.513 119.138 118.718 118.932ZM114.609 142.359L217.319 129.055L245.336 196.381L179.496 315.465L106.186 324.653L64.347 228.566C81.0637 196.344 94.3624 172.916 114.628 142.378L114.609 142.359ZM40.1217 309.009C40.1217 286.068 42.9794 263.558 48.5081 241.908L91.2619 340.053C89.8237 365.089 89.5995 386.122 94.3811 420.047L72.1917 436.701C51.2537 397.948 40.1217 354.33 40.1217 309.009ZM244.851 570.249C197.483 558.778 154.038 534.49 118.718 499.087C104.859 485.202 92.7001 470.046 82.3525 453.916L103.571 437.973C127.703 457.415 145.129 469.166 176.751 486.232L248.642 568.247L244.851 570.249ZM309.009 566.301C297.242 566.319 285.158 565.777 271.653 564.373L199.65 482.208L247.82 426.11H370.217L418.387 482.208L346.384 564.373C332.88 565.758 320.795 566.319 309.028 566.301H309.009ZM499.3 499.087C463.98 534.49 420.517 558.778 373.168 570.249L369.376 568.247L441.268 486.232C472.871 469.166 490.297 457.415 514.448 437.973L535.685 453.916C525.337 470.046 513.178 485.202 499.319 499.087H499.3ZM545.827 436.701L523.638 420.047C528.419 386.122 528.195 365.089 526.757 340.053L569.511 241.908C575.039 263.558 577.897 286.068 577.897 309.009C577.897 354.33 566.765 397.948 545.827 436.701Z" fill="url(#paint0_linear_1932_635)" stroke="url(#paint1_linear_1932_635)" stroke-width="3.35987" stroke-miterlimit="10"/>
<defs>
<linearGradient id="paint0_linear_1932_635" x1="1139.37" y1="-644.345" x2="48.3952" y2="615.049" gradientUnits="userSpaceOnUse">
<stop stop-color="#B8C3C6"/>
<stop offset="1" stop-color="#B8C3C6" stop-opacity="0"/>
</linearGradient>
<linearGradient id="paint1_linear_1932_635" x1="309" y1="2" x2="309" y2="231.18" gradientUnits="userSpaceOnUse">
<stop stop-color="#B8C3C6"/>
<stop offset="1" stop-color="#B8C3C6" stop-opacity="0"/>
</linearGradient>
</defs>
</svg>
