<svg width="37" height="38" viewBox="0 0 37 38" fill="none" xmlns="http://www.w3.org/2000/svg">
<path d="M18.5 0.718506C8.42 0.718506 0.21875 8.91975 0.21875 18.9998C0.21875 29.0798 8.42 37.281 18.5 37.281C28.58 37.281 36.7812 29.0798 36.7812 18.9998C36.7812 8.91975 28.58 0.718506 18.5 0.718506ZM18.5 3.53101C18.9753 3.53101 19.4422 3.56023 19.9062 3.60242V6.34351H17.0937L15.6875 10.5623H14.2812V11.9685H21.3125L22.7187 13.3748H24.125V14.781L22.7187 16.1873L17.0937 14.781L11.4687 18.9998V23.2185L14.2812 26.031H18.5V29.5466L19.9062 33.0623H21.3125L25.5312 27.4373V26.031L26.9375 23.2185V21.8123H25.5312L24.125 18.9998L25.5312 17.5935L27.6406 18.9998L31.1562 17.5935V16.1873H33.6996C33.8683 17.1013 33.9687 18.0379 33.9687 18.9998C33.9687 27.5287 27.0289 34.4685 18.5 34.4685C9.97109 34.4685 3.03125 27.5287 3.03125 18.9998C3.03125 10.4708 9.97109 3.53101 18.5 3.53101Z" fill="#DAD2D8"/>
</svg>
