<svg width="24" height="16" viewBox="0 0 24 16" fill="none" xmlns="http://www.w3.org/2000/svg">
<path d="M23.5558 3.26978L23.5415 3.24354L23.5248 3.22207C21.6328 0.459325 16.9758 0.332878 12.4762 0.208818L12.2495 0.20166L12.0229 0.208818C7.52329 0.332878 2.86623 0.459325 0.974305 3.22207L0.957605 3.24354L0.94329 3.26978C0.0128334 4.84679 0.571108 6.95344 2.35568 8.73323C3.80385 12.0232 6.92684 15.3681 12.2471 15.3681C17.5675 15.3681 20.6928 12.0256 22.141 8.73323C23.9256 6.94866 24.4838 4.84679 23.5534 3.26978M22.8066 3.38191C22.84 3.44394 22.8687 3.50597 22.8949 3.56562C21.6591 4.21455 20.3803 4.73704 19.0753 5.13547C19.0657 5.09014 19.0538 5.04719 19.0419 5.00663C19.0276 4.96369 19.0109 4.92313 18.9942 4.88019C20.2658 4.43882 21.504 3.87577 22.6897 3.19582C22.7303 3.25547 22.7709 3.3175 22.8066 3.3843M22.3581 2.7807C21.2392 3.49166 20.0606 4.09526 18.8367 4.58435C18.7866 4.50801 18.7317 4.43166 18.6697 4.36009C19.8459 3.8376 20.9696 3.20775 22.0313 2.48009C22.1482 2.57313 22.2555 2.67334 22.3581 2.77831M21.5636 2.15323C20.5807 2.89283 19.5286 3.54653 18.4168 4.10242C18.3428 4.03562 18.2617 3.97359 18.1758 3.91394C19.2303 3.33181 20.2204 2.66379 21.1366 1.92181C21.2845 1.99339 21.4277 2.07212 21.5636 2.15323ZM8.4776 8.27039C8.96669 7.07034 9.45816 5.87267 9.94964 4.67262H14.5184C15.0027 5.87506 15.487 7.0775 15.9714 8.27755L15.7543 8.36821C15.6827 8.17734 15.6111 7.98887 15.5395 7.798H13.4782C13.4734 8.1511 12.9271 8.42308 12.2233 8.42308C11.5195 8.42308 10.9731 8.1511 10.9708 7.798H8.90943L8.69471 8.36105L8.4776 8.27039ZM16.6418 7.95308C16.0334 6.72202 15.4274 5.49095 14.819 4.26227H9.67766C9.06928 5.49811 8.45852 6.72917 7.85014 7.96501C7.94796 8.01988 8.04816 8.07237 8.15314 8.12247C6.28984 7.20156 5.41664 5.77247 6.1276 4.82293C7.24654 3.32227 10.6415 3.17674 12.2471 3.17674C13.8528 3.17674 17.2478 3.32466 18.3667 4.82293C19.0347 5.71521 18.288 7.03455 16.6394 7.95308M20.5616 1.67608C19.7266 2.41806 18.8152 3.09801 17.837 3.70161C17.7416 3.64674 17.639 3.59425 17.5341 3.54653C18.4502 2.92623 19.2948 2.24151 20.0606 1.5043C20.2324 1.55679 20.3994 1.61405 20.5616 1.67608ZM19.4045 1.32059C18.7198 2.04826 17.9587 2.73775 17.1261 3.37237C17.0116 3.32704 16.8947 3.28648 16.7754 3.24592C17.5388 2.60415 18.2307 1.91465 18.851 1.19176C19.0395 1.23232 19.2208 1.27526 19.4045 1.32059ZM18.1377 1.05816C17.5985 1.76912 16.9901 2.45623 16.3149 3.10755C16.1861 3.07415 16.0549 3.04075 15.9236 3.01212C16.5296 2.35603 17.0712 1.6713 17.546 0.967498C17.7464 0.996127 17.9444 1.02237 18.1377 1.05816ZM16.7945 0.874452C16.396 1.56872 15.9356 2.24867 15.4202 2.90953C15.2843 2.88328 15.1435 2.86181 15.0003 2.83795C15.4465 2.17709 15.8401 1.49714 16.1789 0.810036C16.3865 0.826736 16.5917 0.848208 16.7945 0.872066M14.7785 0.709833C14.9908 0.721762 15.1984 0.736076 15.4083 0.750391C15.1411 1.43034 14.8286 2.10552 14.4707 2.76877C14.3276 2.75445 14.1796 2.73775 14.0341 2.72344C14.318 2.0578 14.5661 1.3874 14.7785 0.709833ZM13.3589 0.657345C13.5713 0.662117 13.7836 0.666889 13.9935 0.674046C13.8504 1.34684 13.6786 2.01486 13.483 2.68288C13.3351 2.67334 13.1848 2.66618 13.0345 2.66141C13.1585 1.99577 13.2659 1.32537 13.3589 0.657345ZM12.2495 0.645416C12.3569 0.645416 12.4619 0.645416 12.5692 0.647802C12.543 1.31344 12.512 1.98146 12.4762 2.64948C12.4022 2.64948 12.3259 2.64709 12.2495 2.64709C12.1732 2.64709 12.0992 2.64709 12.0229 2.64948C11.9871 1.98146 11.9561 1.31344 11.9298 0.647802C12.0372 0.647802 12.1422 0.645416 12.2495 0.645416ZM11.1401 0.657345C11.2308 1.32537 11.3382 1.99577 11.4622 2.66141C11.3119 2.66618 11.1616 2.67334 11.0137 2.68288C10.8181 2.01724 10.6487 1.34684 10.5031 0.674046C10.7131 0.666889 10.9254 0.662117 11.1378 0.657345M9.7206 0.709833C9.93293 1.3874 10.1811 2.0578 10.4674 2.72344C10.3194 2.73775 10.1739 2.75445 10.0308 2.76877C9.67288 2.10552 9.36035 1.43034 9.09314 0.750391C9.3007 0.736076 9.51065 0.721762 9.7206 0.709833ZM8.31776 0.812422C8.65893 1.49953 9.05258 2.17709 9.49634 2.84034C9.35319 2.8642 9.2172 2.88567 9.07882 2.91191C8.56111 2.25105 8.10304 1.5711 7.70461 0.876838C7.9074 0.85298 8.11258 0.833894 8.32014 0.814807M6.95309 0.969883C7.42786 1.67369 7.96943 2.35841 8.57542 3.0145C8.44182 3.04313 8.31299 3.07653 8.18415 3.10993C7.50659 2.45861 6.89821 1.77151 6.35903 1.06054C6.55466 1.02714 6.75268 0.998513 6.95309 0.969883ZM5.64806 1.19176C6.26598 1.91465 6.96024 2.60415 7.7237 3.24592C7.60441 3.28648 7.4875 3.32704 7.3706 3.37237C6.54035 2.73775 5.77928 2.05064 5.09456 1.32059C5.27588 1.27526 5.45958 1.23232 5.64806 1.19176ZM4.43847 1.50191C5.20669 2.23912 6.05126 2.92384 6.96502 3.54415C6.86243 3.59425 6.75984 3.64435 6.66202 3.69922C5.68385 3.09562 4.77248 2.41567 3.93745 1.67369C4.09969 1.61166 4.26669 1.5544 4.43847 1.50191ZM3.36009 1.9242C4.27862 2.66618 5.26872 3.3342 6.32324 3.91633C6.23735 3.97836 6.15623 4.03801 6.08227 4.10481C4.9705 3.54892 3.91837 2.89521 2.93781 2.15562C3.0738 2.0745 3.21456 1.99816 3.36248 1.9242M2.46542 2.48247C3.5271 3.20775 4.6508 3.8376 5.827 4.36009C5.76497 4.43166 5.71009 4.50801 5.65999 4.58435C4.43847 4.09526 3.2575 3.49166 2.13857 2.7807C2.23877 2.67334 2.34852 2.57313 2.46304 2.48247M1.69243 3.38191C1.72821 3.3175 1.76877 3.25547 1.80695 3.19344C2.99268 3.87577 4.2309 4.43643 5.50253 4.8778C5.48583 4.92075 5.46913 4.9613 5.45481 5.00425C5.4405 5.04719 5.42857 5.09014 5.41903 5.13547C4.114 4.73704 2.83522 4.21455 1.59938 3.56562C1.62801 3.50359 1.65664 3.44156 1.69004 3.38191M1.43238 4.07141C2.7207 4.66785 4.04004 5.13308 5.3737 5.46709C5.36892 5.56014 5.3737 5.65557 5.38324 5.74861C4.03527 5.46948 2.68969 5.05912 1.36796 4.51278C1.3775 4.36009 1.39898 4.21455 1.42999 4.07141M1.39659 5.10207C2.74694 5.57207 4.10684 5.90608 5.46197 6.10887C5.49299 6.20669 5.52877 6.30689 5.5741 6.40709C4.22852 6.26872 2.86623 6.00389 1.50395 5.60547C1.45385 5.43369 1.41806 5.26669 1.39659 5.10207ZM2.03598 6.79597C1.92623 6.61465 1.82842 6.43333 1.7473 6.2544C3.1072 6.55501 4.45755 6.72679 5.78167 6.77927C5.84608 6.88186 5.92004 6.98207 6.00116 7.08227C4.70806 7.10136 3.38156 7.01069 2.03837 6.79359M2.50837 7.47115C3.81816 7.57135 5.09694 7.5642 6.33517 7.45445C6.43537 7.55227 6.54035 7.65009 6.65486 7.74552C5.4739 7.92922 4.24522 8.02465 2.98314 8.0175C2.80898 7.83856 2.6539 7.65724 2.50837 7.47354M4.34781 9.17938C4.11639 9.01476 3.89451 8.84536 3.68694 8.67359C4.87507 8.56146 6.02263 8.36344 7.11532 8.08907C7.24892 8.17973 7.38969 8.26562 7.53522 8.35151C6.52365 8.69267 5.4572 8.9742 4.34781 9.17938ZM5.26634 9.76628C6.25882 9.44897 7.20837 9.07201 8.10781 8.64735C8.27004 8.72369 8.43705 8.79526 8.60882 8.86207C7.81436 9.34638 6.97456 9.79252 6.08705 10.1957C5.80314 10.0597 5.52877 9.91658 5.26872 9.76628M8.13882 10.9711C7.81436 10.8781 7.49705 10.7731 7.18928 10.6586C7.9241 10.1647 8.61837 9.64222 9.27207 9.09349C9.45578 9.15075 9.64425 9.20085 9.8375 9.24618C9.30547 9.83785 8.74004 10.4128 8.13882 10.9711ZM10.4125 11.4292C10.0618 11.3862 9.71583 11.3314 9.37705 11.2669C9.79933 10.6514 10.1978 10.0263 10.5699 9.39171C10.768 9.42273 10.9708 9.44897 11.1759 9.47283C10.9374 10.1265 10.6821 10.7826 10.4125 11.4316M12.2495 11.5437C12.0706 11.5437 11.8941 11.5389 11.7199 11.5318C11.7986 10.8614 11.8726 10.1909 11.9394 9.52054C12.042 9.52293 12.1469 9.52531 12.2495 9.52531C12.3521 9.52531 12.4571 9.52531 12.5597 9.52054C12.6289 10.1909 12.7004 10.8614 12.7792 11.5318C12.6026 11.5389 12.4261 11.5437 12.2471 11.5437M14.0866 11.4292C13.8146 10.7802 13.5617 10.1265 13.3231 9.47044C13.5283 9.44897 13.7311 9.42272 13.9291 9.38932C14.3013 10.0216 14.6974 10.649 15.122 11.2646C14.7832 11.3314 14.4373 11.3862 14.0866 11.4268M16.3602 10.9711C15.759 10.4152 15.1936 9.84024 14.6616 9.24618C14.8548 9.20085 15.0433 9.14836 15.227 9.09349C15.8807 9.64222 16.5774 10.1647 17.3098 10.6586C17.002 10.7707 16.6847 10.8757 16.3602 10.9711ZM18.412 10.1957C17.5269 9.79252 16.6847 9.34877 15.8902 8.86207C16.062 8.79526 16.229 8.72369 16.3913 8.64735C17.2907 9.07201 18.2379 9.44897 19.2327 9.76389C18.9703 9.9142 18.6983 10.0573 18.412 10.1957ZM20.1513 9.17938C19.0419 8.9742 17.9778 8.69268 16.9639 8.34912C17.1094 8.26323 17.2501 8.17735 17.3837 8.08907C18.4788 8.36344 19.624 8.56146 20.8121 8.67359C20.6046 8.84536 20.3851 9.01476 20.1513 9.17938ZM21.5159 8.01511C20.2515 8.02227 19.0228 7.92684 17.8442 7.74313C17.9587 7.6477 18.0637 7.54988 18.1639 7.45207C19.4021 7.56181 20.6809 7.57135 21.9907 7.46877C21.8452 7.65009 21.6877 7.83141 21.5159 8.01273M22.4631 6.79359C21.1175 7.00831 19.791 7.10136 18.5003 7.08227C18.5814 6.98207 18.6554 6.88186 18.7198 6.77927C20.0439 6.72679 21.3919 6.55501 22.7542 6.2544C22.6707 6.43333 22.5752 6.61465 22.4631 6.79359ZM22.9951 5.60547C21.6328 6.00389 20.2705 6.26872 18.925 6.40709C18.9703 6.30689 19.0085 6.20669 19.0371 6.10887C20.3922 5.90369 21.7521 5.56968 23.1025 5.10207C23.0786 5.26669 23.0452 5.43608 22.9951 5.60547ZM19.1134 5.74861C19.1254 5.65557 19.1278 5.56014 19.123 5.46709C20.4566 5.13308 21.776 4.66785 23.0667 4.07141C23.0977 4.21455 23.1192 4.36247 23.1287 4.51278C21.807 5.05912 20.4638 5.46709 19.1158 5.74861" fill="#2F1A45"/>
</svg>
