<svg width="16" height="16" viewBox="0 0 16 16" fill="none" xmlns="http://www.w3.org/2000/svg">
<g clip-path="url(#clip0_1_1280)">
<path d="M8.00279 3.89159C5.73412 3.89159 3.89746 5.73026 3.89746 7.99692C3.89746 10.2656 5.73612 12.1023 8.00279 12.1023C10.2715 12.1023 12.1081 10.2636 12.1081 7.99692C12.1081 5.72826 10.2695 3.89159 8.00279 3.89159ZM8.00279 10.6616C6.53012 10.6616 5.33812 9.46892 5.33812 7.99692C5.33812 6.52492 6.53079 5.33226 8.00279 5.33226C9.47479 5.33226 10.6675 6.52492 10.6675 7.99692C10.6681 9.46892 9.47546 10.6616 8.00279 10.6616Z" fill="white"/>
<path d="M11.2988 0.0502578C9.82682 -0.0184089 6.18082 -0.0150756 4.70749 0.0502578C3.41282 0.110924 2.27082 0.423591 1.35015 1.34426C-0.188515 2.88292 0.00815151 4.95626 0.00815151 7.99692C0.00815151 11.1089 -0.165182 13.1343 1.35015 14.6496C2.89482 16.1936 4.99815 15.9916 8.00282 15.9916C11.0855 15.9916 12.1495 15.9936 13.2395 15.5716C14.7215 14.9963 15.8402 13.6716 15.9495 11.2923C16.0188 9.81959 16.0148 6.17426 15.9495 4.70092C15.8175 1.89226 14.3102 0.188924 11.2988 0.0502578ZM13.6288 13.6316C12.6202 14.6403 11.2208 14.5503 7.98349 14.5503C4.65015 14.5503 3.31349 14.5996 2.33815 13.6216C1.21482 12.5036 1.41815 10.7083 1.41815 7.98626C1.41815 4.30292 1.04015 1.65026 4.73682 1.46092C5.58615 1.43092 5.83615 1.42092 7.97415 1.42092L8.00415 1.44092C11.5568 1.44092 14.3442 1.06892 14.5115 4.76492C14.5495 5.60826 14.5582 5.86159 14.5582 7.99626C14.5575 11.2909 14.6202 12.6356 13.6288 13.6316Z" fill="white"/>
<path d="M12.2708 4.68893C12.8006 4.68893 13.2301 4.25942 13.2301 3.72959C13.2301 3.19977 12.8006 2.77026 12.2708 2.77026C11.741 2.77026 11.3115 3.19977 11.3115 3.72959C11.3115 4.25942 11.741 4.68893 12.2708 4.68893Z" fill="white"/>
</g>
<defs>
<clipPath id="clip0_1_1280">
<rect width="16" height="16" fill="white"/>
</clipPath>
</defs>
</svg>
