<svg width="67" height="67" viewBox="0 0 67 67" fill="none" xmlns="http://www.w3.org/2000/svg">
<path d="M9.77084 52.3437C8.62625 52.3437 7.67709 51.3946 7.67709 50.25V19.5416C7.67709 7.2304 11.4179 3.48956 23.7292 3.48956H43.2708C55.5821 3.48956 59.3229 7.2304 59.3229 19.5416V47.4583C59.3229 47.905 59.3229 48.3237 59.295 48.7704C59.2113 49.915 58.1783 50.8083 57.0617 50.7246C55.9171 50.6408 55.0238 49.6358 55.1075 48.4912C55.1354 48.1562 55.1354 47.7933 55.1354 47.4583V19.5416C55.1354 9.5754 53.265 7.67706 43.2708 7.67706H23.7292C13.735 7.67706 11.8646 9.5754 11.8646 19.5416V50.25C11.8646 51.3946 10.9154 52.3437 9.77084 52.3437Z" fill="white"/>
<path d="M47.4583 63.5104H19.5417C13.0092 63.5104 7.67709 58.1783 7.67709 51.6458V49.8313C7.67709 44.2758 12.1996 39.7812 17.7271 39.7812H57.2292C58.3738 39.7812 59.3229 40.7304 59.3229 41.875V51.6458C59.3229 58.1783 53.9908 63.5104 47.4583 63.5104ZM17.7271 43.9688C14.4888 43.9688 11.8646 46.5929 11.8646 49.8313V51.6458C11.8646 55.8892 15.2983 59.3229 19.5417 59.3229H47.4583C51.7017 59.3229 55.1354 55.8892 55.1354 51.6458V43.9688H17.7271Z" fill="white"/>
<path d="M44.6667 21.6354H22.3333C21.1888 21.6354 20.2396 20.6863 20.2396 19.5417C20.2396 18.3971 21.1888 17.4479 22.3333 17.4479H44.6667C45.8113 17.4479 46.7604 18.3971 46.7604 19.5417C46.7604 20.6863 45.8113 21.6354 44.6667 21.6354Z" fill="white"/>
<path d="M36.2917 31.4063H22.3333C21.1888 31.4063 20.2396 30.4571 20.2396 29.3125C20.2396 28.1679 21.1888 27.2188 22.3333 27.2188H36.2917C37.4363 27.2188 38.3854 28.1679 38.3854 29.3125C38.3854 30.4571 37.4363 31.4063 36.2917 31.4063Z" fill="white"/>
</svg>
