<svg width="16" height="16" viewBox="0 0 16 16" fill="none" xmlns="http://www.w3.org/2000/svg">
<path d="M8.00003 0.693115C3.96897 0.693115 0.693176 3.96891 0.693176 7.99997C0.693176 12.031 3.96897 15.3068 8.00003 15.3068C12.0311 15.3068 15.3069 12.031 15.3069 7.99997C15.3069 3.96891 12.0311 0.693115 8.00003 0.693115ZM8.00003 1.25518C11.7281 1.25518 14.7448 4.27189 14.7448 7.99997C14.7448 11.7281 11.7281 14.7448 8.00003 14.7448C4.27196 14.7448 1.25524 11.7281 1.25524 7.99997C1.25524 4.27189 4.27196 1.25518 8.00003 1.25518ZM8.00003 2.37931C4.90208 2.37931 2.37937 4.90202 2.37937 7.99997C2.37937 11.0979 4.90208 13.6206 8.00003 13.6206C11.098 13.6206 13.6207 11.0979 13.6207 7.99997C13.6207 4.90202 11.098 2.37931 8.00003 2.37931ZM8.00003 3.50345C10.4898 3.50345 12.4966 5.5102 12.4966 7.99997C12.4966 10.4897 10.4898 12.4965 8.00003 12.4965C5.51026 12.4965 3.50351 10.4897 3.50351 7.99997C3.50351 5.5102 5.51026 3.50345 8.00003 3.50345ZM8.00003 4.62758C6.14478 4.62758 4.62764 6.14472 4.62764 7.99997C4.62764 9.85523 6.14478 11.3724 8.00003 11.3724C9.85529 11.3724 11.3724 9.85523 11.3724 7.99997C11.3724 6.14472 9.85529 4.62758 8.00003 4.62758ZM8.00003 5.75171C9.24931 5.75171 10.2483 6.75069 10.2483 7.99997C10.2483 9.24925 9.24931 10.2482 8.00003 10.2482C6.75075 10.2482 5.75177 9.24925 5.75177 7.99997C5.75177 6.75069 6.75075 5.75171 8.00003 5.75171ZM8.00003 6.87584C7.37869 6.87584 6.8759 7.37863 6.8759 7.99997C6.8759 8.62132 7.37869 9.1241 8.00003 9.1241C8.62138 9.1241 9.12417 8.62132 9.12417 7.99997C9.12417 7.37863 8.62138 6.87584 8.00003 6.87584Z" fill="white" stroke="white" stroke-width="0.856481"/>
</svg>
