<svg width="18" height="18" viewBox="0 0 18 18" fill="none" xmlns="http://www.w3.org/2000/svg">
<path d="M6.9375 0.0625C10.7268 0.0625 13.8125 3.14819 13.8125 6.9375C13.8125 8.58374 13.2351 10.093 12.2656 11.2773L17.7441 16.7559L16.7559 17.7441L11.2773 12.2656C10.093 13.2351 8.58374 13.8125 6.9375 13.8125C3.14819 13.8125 0.0625 10.7268 0.0625 6.9375C0.0625 3.14819 3.14819 0.0625 6.9375 0.0625ZM6.9375 1.4375C3.89209 1.4375 1.4375 3.89209 1.4375 6.9375C1.4375 9.98291 3.89209 12.4375 6.9375 12.4375C9.98291 12.4375 12.4375 9.98291 12.4375 6.9375C12.4375 3.89209 9.98291 1.4375 6.9375 1.4375Z" fill="#DAD2D8"/>
</svg>
