<svg width="133" height="44" viewBox="0 0 133 44" fill="none" xmlns="http://www.w3.org/2000/svg">
<path fill-rule="evenodd" clip-rule="evenodd" d="M6 0C2.68629 0 0 2.68629 0 6V13.5123C3.57602 14.7479 6.13804 18.0815 6.13804 22C6.13804 25.9185 3.57602 29.2521 0 30.4877V38C0 41.3137 2.68629 44 6 44H127C130.314 44 133 41.3137 133 38V30.4886C129.423 29.2537 126.859 25.9194 126.859 22C126.859 18.0806 129.423 14.7463 133 13.5114V6C133 2.68629 130.314 0 127 0H6Z" fill="#FFB92E"/>
<path d="M38.5 22.5C38.5 21.12 39.62 20 41 20V19C41 15 40 14 36 14H26C22 14 21 15 21 19V19.5C22.38 19.5 23.5 20.62 23.5 22C23.5 23.38 22.38 24.5 21 24.5V25C21 29 22 30 26 30H36C40 30 41 29 41 25C39.62 25 38.5 23.88 38.5 22.5Z" stroke="#2F1A45" stroke-width="1.5" stroke-linecap="round" stroke-linejoin="round"/>
<path d="M29 14L29 30" stroke="#2F1A45" stroke-width="1.5" stroke-linecap="round" stroke-linejoin="round" stroke-dasharray="5 5"/>
<line x1="54" y1="1" x2="54" y2="43" stroke="#2F1A45" stroke-width="2" stroke-linecap="round" stroke-dasharray="4 4"/>
<path d="M70.128 17.358H67.806V28.5H65.466V17.358H63.144L63.198 15H70.092L70.128 17.358ZM71.2493 28.5V15H73.5893V28.5H71.2493ZM81.2984 15.27L81.0824 17.502C80.7044 17.286 80.0924 17.142 79.5524 17.142C78.0584 17.142 77.5004 18.024 77.5004 21.642C77.5004 25.494 78.0764 26.43 79.6244 26.43C80.2004 26.43 80.7044 26.286 81.1364 26.034L81.3344 28.23C80.8484 28.518 79.9664 28.716 79.2464 28.716C76.3844 28.716 75.1064 26.808 75.1064 21.624C75.1064 16.746 76.4204 14.784 79.2824 14.784C79.9304 14.784 80.8484 15 81.2984 15.27ZM90.1104 28.5H87.5364L85.4664 22.578H84.7644V28.5H82.4784V15H84.7464V20.544H85.5204L87.5364 15H90.0204L87.6264 21.48L90.1104 28.5ZM93.4128 26.196H97.1748L97.1208 28.5H91.1268V15H96.9408L96.9768 17.34H93.4128V20.4H96.4008V22.614H93.4128V26.196ZM104.651 17.358H102.329V28.5H99.9894V17.358H97.6674L97.7214 15H104.615L104.651 17.358ZM111.426 24.666C111.426 27.258 110.202 28.716 107.916 28.716C106.908 28.716 105.9 28.41 105.18 27.888L105.522 25.692C106.206 26.142 106.926 26.412 107.754 26.412C108.762 26.412 109.212 25.872 109.212 24.774C109.212 22.362 105.198 22.722 105.198 18.654C105.198 16.368 106.386 14.802 108.654 14.802C109.59 14.802 110.418 15 111.084 15.378L110.814 17.574C110.202 17.304 109.536 17.16 108.906 17.16C107.79 17.16 107.412 17.718 107.412 18.582C107.412 20.904 111.426 20.598 111.426 24.666Z" fill="#2F1A45"/>
</svg>
