<svg width="24" height="19" viewBox="0 0 24 19" fill="none" xmlns="http://www.w3.org/2000/svg">
<path d="M23.0148 11.9748L11.0243 6.51815L10.57 6.31053L9.79811 5.9588C9.0629 5.62173 8.28372 5.42632 7.48501 5.3677C6.93299 5.32862 6.38097 5.35793 5.83872 5.45563C5.55783 5.08925 5.19144 4.7937 4.76155 4.5983C3.33754 3.95102 1.65217 4.58364 1.0049 6.00521C0.755755 6.55967 0.687363 7.16543 0.811934 7.76141C0.882768 8.09848 1.00978 8.41357 1.19053 8.69691C1.07573 8.89231 0.973143 9.09261 0.880325 9.30022C0.499286 10.1283 0.296554 11.0051 0.269686 11.9064C0.24526 12.7784 0.389371 13.6333 0.697133 14.4516C1.00245 15.2723 1.45921 16.0124 2.04787 16.6523C2.65851 17.3167 3.38883 17.8443 4.21442 18.2204C5.04245 18.5966 5.91688 18.7993 6.82063 18.8238C7.69018 18.8482 8.54752 18.7041 9.36578 18.3963C10.1865 18.0886 10.9241 17.6342 11.5665 17.0456C12.1894 16.474 12.6925 15.7974 13.0614 15.0305L21.4125 16.0881L22.0304 16.1638L22.2894 15.5971L23.4276 13.0935L23.7793 12.3217L23.0075 11.9724L23.0148 11.9748ZM2.05275 6.48395C2.43624 5.63883 3.43769 5.26267 4.28281 5.6486C4.56615 5.77561 4.80552 5.98078 4.9765 6.23481C4.91788 6.25435 4.85437 6.27878 4.78598 6.30564C4.63454 6.10047 4.43669 5.93682 4.20221 5.82935C3.45478 5.48739 2.57058 5.81958 2.22862 6.567C2.01367 7.03597 2.06497 7.5831 2.34342 8.00567C2.29945 8.05696 2.25549 8.1107 2.21152 8.16199C1.86468 7.67836 1.79629 7.04086 2.05031 6.48395M4.20953 6.55723C3.76743 6.7795 3.26671 7.09703 2.78308 7.54891C2.68049 7.31931 2.67316 7.05063 2.78308 6.81614C2.98337 6.37159 3.50852 6.17619 3.95306 6.37892C4.05077 6.42533 4.1387 6.48395 4.21198 6.55967M21.3392 14.9206L12.3359 13.7823L12.2529 14.0095C12.204 14.1438 12.1503 14.2757 12.0917 14.4052C10.8167 17.2068 7.49722 18.4525 4.6956 17.1775C1.89155 15.9 0.648282 12.5806 1.9233 9.77652C2.03321 9.53959 2.15778 9.30755 2.29945 9.08528C2.30922 9.07062 2.31899 9.05597 2.32876 9.03887C2.37761 8.96315 2.42891 8.88743 2.48264 8.8166L2.60233 8.6505C2.66584 8.5699 2.73179 8.48929 2.79773 8.41357L2.88078 8.32564L2.86368 8.33785C3.3986 7.74187 3.98482 7.36083 4.43425 7.12634C4.54905 7.06772 4.66141 7.01399 4.76644 6.96758L4.73957 6.98712C4.75422 6.97979 4.76888 6.97246 4.78598 6.96758L5.03512 6.85766C5.11084 6.82835 5.17923 6.80393 5.24518 6.78439L5.50409 6.71111C6.67163 6.38381 7.91734 6.44731 9.04092 6.88942L8.82108 7.39014C9.44394 7.62951 10.0057 7.98857 10.4845 8.438L10.824 7.69058L22.2625 12.8957L21.3416 14.9181L21.3392 14.9206ZM8.782 8.19374C6.63255 7.21672 4.08741 8.16932 3.10794 10.3188C2.13092 12.4682 3.08351 15.0134 5.23297 15.9904C7.38242 16.9674 9.92756 16.0148 10.9046 13.8654C11.8841 11.7159 10.9315 9.17077 8.782 8.1913M10.3526 13.6138C9.51477 15.4604 7.32868 16.2786 5.48455 15.4384C3.63797 14.5981 2.81972 12.4145 3.65996 10.5679C4.5002 8.72134 6.68385 7.90308 8.53042 8.74332C10.377 9.58112 11.1953 11.7672 10.355 13.6113M8.0297 9.84003C6.78888 9.2758 5.3209 9.82537 4.75667 11.0662C4.19244 12.307 4.74201 13.775 5.98283 14.3392C7.22365 14.9035 8.69163 14.3539 9.2583 13.1131C9.82253 11.8722 9.27296 10.4043 8.03214 9.83759M8.70628 12.8639C8.28128 13.7994 7.17236 14.2147 6.23686 13.7896C5.30136 13.3646 4.88612 12.2557 5.31113 11.3202C5.73858 10.3847 6.8475 9.96948 7.783 10.3945C8.7185 10.8219 9.13373 11.9309 8.70873 12.8664M10.5993 4.83767L12.2309 1.8382C12.3555 1.6086 12.6437 1.52311 12.8733 1.65013C13.1053 1.77714 13.1884 2.06292 13.0638 2.29252L11.4322 5.28954C11.3467 5.44831 11.1855 5.53868 11.0169 5.53868C10.9412 5.53868 10.8631 5.51914 10.7898 5.48006C10.5602 5.35549 10.4747 5.06727 10.5993 4.83767ZM8.46203 1.51334C8.42051 1.25443 8.59637 1.01262 8.85528 0.971096C9.11419 0.929572 9.356 1.10788 9.39753 1.36435L9.87627 4.38335C9.91535 4.64226 9.74193 4.88652 9.48302 4.9256C9.45859 4.93048 9.43172 4.93293 9.4073 4.93293C9.18014 4.93293 8.97741 4.76683 8.93833 4.53235L8.45959 1.51334H8.46203ZM12.0819 5.64127L15.2768 4.06338C15.5137 3.94858 15.797 4.04628 15.9143 4.27832C16.0291 4.51525 15.9338 4.79859 15.6993 4.91339L12.5045 6.49128C12.4361 6.52548 12.3652 6.54013 12.2944 6.54013C12.1185 6.54013 11.95 6.44243 11.8694 6.27633C11.7546 6.04185 11.8499 5.75851 12.0843 5.64127" fill="#2F1A45"/>
</svg>
