<svg width="16" height="12" viewBox="0 0 16 12" fill="none" xmlns="http://www.w3.org/2000/svg">
<path d="M15.6462 1.95333L15.6662 2.08399C15.4729 1.39799 14.9509 0.86866 14.2875 0.675994L14.2735 0.67266C13.0262 0.333994 8.00686 0.333994 8.00686 0.333994C8.00686 0.333994 3.0002 0.327327 1.7402 0.67266C1.0642 0.86866 0.541529 1.39799 0.351529 2.06999L0.348196 2.08399C-0.117804 4.51799 -0.121137 7.44266 0.368863 10.0487L0.348196 9.91666C0.541529 10.6027 1.06353 11.132 1.72686 11.3247L1.74086 11.328C2.98686 11.6673 8.00753 11.6673 8.00753 11.6673C8.00753 11.6673 13.0135 11.6673 14.2742 11.328C14.9509 11.132 15.4735 10.6027 15.6635 9.93066L15.6669 9.91666C15.8789 8.78466 16.0002 7.48199 16.0002 6.15133C16.0002 6.10266 16.0002 6.05333 15.9995 6.00399C16.0002 5.95866 16.0002 5.90466 16.0002 5.85066C16.0002 4.51933 15.8789 3.21666 15.6462 1.95333ZM6.40553 8.43466V3.57266L10.5829 6.00733L6.40553 8.43466Z" fill="white"/>
</svg>
